<svg id="Layer_1" data-name="Layer 1" xmlns="http://www.w3.org/2000/svg" viewBox="0 0 207.03 58.62"><defs><style>.cls-1{fill:#fff;}</style></defs><path class="cls-1" d="M65.88,40.56l2.7-.08c.13,1.4.57,2.7,2,2.7s1.69-1.12,1.69-2.16a4.61,4.61,0,0,0-1.69-3.14l-2-2.11a6.75,6.75,0,0,1-2.45-4.86,4.18,4.18,0,0,1,4.45-4.47c2.21,0,4.08,1.17,4.26,4.81l-2.57.08c-.18-1.56-.65-2.55-1.82-2.55s-1.64.75-1.64,1.92,1,2.06,1.87,3l1.8,1.88c1.64,1.66,2.55,3.25,2.55,5.25a4.34,4.34,0,0,1-4.53,4.68C67.72,45.55,66.06,43.7,65.88,40.56Z" transform="translate(-4.49 -6.69)"/><path class="cls-1" d="M79.21,29.22H75.68V26.75h9.93v2.47H82.13V45.29H79.21Z" transform="translate(-4.49 -6.69)"/><path class="cls-1" d="M87.27,26.75H92c3,0,4.71,1.79,4.71,5.3,0,2.66-.91,4.27-2.34,4.87l2.54,8.37h-3l-2.16-7.72H90.19v7.72H87.27Zm4.53,8.63c1.27,0,2-1,2-3.09,0-1.8-.54-3.1-2-3.1H90.19v6.19Z" transform="translate(-4.49 -6.69)"/><path class="cls-1" d="M101.94,26.7h4l3.64,18.59h-2.91l-.94-4.84h-3.92l-.89,4.84h-2.7Zm3.27,11.39L103.79,30h-.08l-1.49,8.09Z" transform="translate(-4.49 -6.69)"/><path class="cls-1" d="M111.69,26.75h3l4.35,11.49h0V26.75h2.57V45.29H119l-4.71-12.66h0V45.29h-2.57Z" transform="translate(-4.49 -6.69)"/><path class="cls-1" d="M124.58,41V31c0-2.84,2.08-4.55,4.94-4.55,2.68,0,4.71,1.56,4.71,4.11v2h-2.65V30.81a1.85,1.85,0,0,0-2-1.9,1.93,1.93,0,0,0-2,2.18v9.8a1.91,1.91,0,0,0,2,2.14,1.72,1.72,0,0,0,1.92-1.93V37.75h-2.18V35.51h5v5.77c0,2.63-1.8,4.27-4.71,4.27S124.58,44,124.58,41Z" transform="translate(-4.49 -6.69)"/><path class="cls-1" d="M137.17,26.75h8.11v2.44h-5.23v5.26h4.19v2.47h-4.19v5.87h5.26v2.5h-8.14Z" transform="translate(-4.49 -6.69)"/><path class="cls-1" d="M146.68,26.75h2.86l1.62,12.3h.05l1.84-12.3h2.84L157.68,39h0l1.56-12.27h2.6l-2.8,18.64h-2.71l-2-13h-.08l-2,13h-2.76Z" transform="translate(-4.49 -6.69)"/><path class="cls-1" d="M163.51,40.82V31.2c0-3.1,2.13-4.74,5-4.74s4.94,1.43,4.94,4.58v9.7c0,3.22-2.18,4.81-5,4.81C165.51,45.55,163.51,44,163.51,40.82Zm7,0V31a2,2,0,1,0-4,.05v9.83a2,2,0,1,0,4,0Z" transform="translate(-4.49 -6.69)"/><path class="cls-1" d="M176.06,26.75h4.71c3,0,4.71,1.79,4.71,5.3,0,2.66-.91,4.27-2.34,4.87l2.54,8.37h-3l-2.16-7.72H179v7.72h-2.92Zm4.53,8.63c1.27,0,2-1,2-3.09,0-1.8-.54-3.1-2-3.1H179v6.19Z" transform="translate(-4.49 -6.69)"/><path class="cls-1" d="M188.21,26.75h2.91v8.66l4.08-8.66h2.89l-3.46,7.15,3.51,11.39H195l-2.52-8.87L191.12,39v6.27h-2.91Z" transform="translate(-4.49 -6.69)"/><path class="cls-1" d="M199.23,40.56l2.7-.08c.13,1.4.57,2.7,2,2.7s1.69-1.12,1.69-2.16a4.61,4.61,0,0,0-1.69-3.14L202,35.77a6.75,6.75,0,0,1-2.45-4.86A4.18,4.18,0,0,1,204,26.44c2.21,0,4.08,1.17,4.26,4.81l-2.57.08c-.18-1.56-.65-2.55-1.82-2.55s-1.64.75-1.64,1.92,1,2.06,1.87,3l1.8,1.88c1.64,1.66,2.55,3.25,2.55,5.25a4.34,4.34,0,0,1-4.53,4.68C201.08,45.55,199.41,43.7,199.23,40.56Z" transform="translate(-4.49 -6.69)"/><path class="cls-1" d="M209.35,27.47a1.09,1.09,0,0,1,.24-.35,1.41,1.41,0,0,1,.36-.24,1.12,1.12,0,0,1,.44-.09,1,1,0,0,1,.43.09,1.13,1.13,0,0,1,.36.24,1.1,1.1,0,0,1,.33.79,1.15,1.15,0,0,1-.33.81,1,1,0,0,1-.36.23,1,1,0,0,1-.43.09A1.12,1.12,0,0,1,210,29a1.16,1.16,0,0,1-.36-.23,1.15,1.15,0,0,1-.33-.81A1.08,1.08,0,0,1,209.35,27.47Zm.18.82a.92.92,0,0,0,.2.31,1,1,0,0,0,.29.2.9.9,0,0,0,.37.07.86.86,0,0,0,.36-.07,1,1,0,0,0,.29-.2,1,1,0,0,0,.27-.69.9.9,0,0,0-.07-.37.92.92,0,0,0-.2-.31,1,1,0,0,0-.29-.2.86.86,0,0,0-.36-.07A.9.9,0,0,0,210,27a1,1,0,0,0-.29.2.92.92,0,0,0-.2.31,1.11,1.11,0,0,0-.07.37A1.12,1.12,0,0,0,209.53,28.29Zm.93-1a.53.53,0,0,1,.34.09.34.34,0,0,1,.12.29.32.32,0,0,1-.1.25.43.43,0,0,1-.25.1l.38.58h-.22l-.36-.56h-.21v.56H210V27.26Zm-.09.58h.13a.2.2,0,0,0,.11,0,.11.11,0,0,0,.07-.06.21.21,0,0,0,0-.12.18.18,0,0,0,0-.11l-.07-.06-.09,0h-.37v.42Z" transform="translate(-4.49 -6.69)"/><path class="cls-1" d="M55.25,37.61,53.65,36h0l1.6-1.6v-13L29.87,6.69,4.49,21.34V34.39L6.09,36h0l-1.6,1.6v13L29.87,65.31,55.25,50.66ZM29.87,11.31,51.25,23.66V33A28.71,28.71,0,0,0,8.49,33V23.66Zm0,30.65a6,6,0,1,1,5.95-6A6,6,0,0,1,29.87,42ZM23.6,43.72A24.54,24.54,0,0,1,11.17,36,24.54,24.54,0,0,1,23.6,28.28a9.92,9.92,0,0,0,0,15.44ZM36.14,28.28A24.47,24.47,0,0,1,48.56,36a24.54,24.54,0,0,1-12.42,7.72,9.94,9.94,0,0,0,0-15.44ZM29.87,60.69,8.49,48.34V39a28.73,28.73,0,0,0,42.76,0v9.36Z" transform="translate(-4.49 -6.69)"/></svg>